<svg xmlns="http://www.w3.org/2000/svg" width="24" height="24" viewBox="0 0 24 24">
    <g fill="none" fill-rule="evenodd">
        <path d="M0 0h24v24H0z"/>
        <path fill="#F5A623" fill-rule="nonzero" d="M14.231 5.588a.6.6 0 0 1 .847 0L18.41 8.9a.6.6 0 0 1 .002.85l-9.556 9.551a2.856 2.856 0 0 1-1.628.822l-3.139.47a.6.6 0 0 1-.682-.682l.469-3.13a2.888 2.888 0 0 1 .796-1.634l9.559-9.559zM5.527 15.99a1.69 1.69 0 0 0-.463.96l-.35 2.336 2.34-.35c.36-.052.693-.22.95-.48l9.134-9.129-2.482-2.467-9.13 9.13zm8.756-7.121a.6.6 0 1 1 .848.848l-6.749 6.75a.6.6 0 1 1-.848-.85l6.749-6.748zm4.948-1.612a.585.585 0 0 0 .003-.82l-1.668-1.668a.585.585 0 0 0-.82-.004l-1.243 1.247 2.485 2.485 1.243-1.24zM17.563 9.77l-3.332-3.332a.6.6 0 0 1 0-.848L15.9 3.915a1.787 1.787 0 0 1 2.512.003l1.673 1.673a1.787 1.787 0 0 1-.003 2.513l-1.67 1.666a.6.6 0 0 1-.849-.001z"/>
    </g>
</svg>
