<svg xmlns="http://www.w3.org/2000/svg" xmlns:xlink="http://www.w3.org/1999/xlink" width="12" height="12" viewBox="0 0 12 12">
    <defs>
        <path id="a" d="M6 .188a5.812 5.812 0 1 0 0 11.624A5.812 5.812 0 0 0 6 .188zm0 1.125A4.685 4.685 0 0 1 10.688 6 4.685 4.685 0 0 1 6 10.688 4.685 4.685 0 0 1 1.312 6 4.685 4.685 0 0 1 6 1.312zm3.286 3.053l-.528-.533a.281.281 0 0 0-.398-.001L5.047 7.118 3.646 5.705a.281.281 0 0 0-.398-.001l-.532.528a.281.281 0 0 0-.002.397l2.128 2.145c.11.11.287.111.397.002l4.045-4.013a.281.281 0 0 0 .002-.397z"/>
    </defs>
    <use fill="#FFF" fill-rule="evenodd" xlink:href="#a"/>
</svg>
