<svg xmlns="http://www.w3.org/2000/svg" width="15" height="15" viewBox="0 0 15 15">
    <path fill="#C6D1DC" fill-rule="evenodd" d="M7.5.234A7.264 7.264 0 0 0 .234 7.5 7.264 7.264 0 0 0 7.5 14.766 7.264 7.264 0 0 0 14.766 7.5 7.264 7.264 0 0 0 7.5.234zm0 13.125A5.858 5.858 0 0 1 1.64 7.5 5.858 5.858 0 0 1 7.5 1.64a5.858 5.858 0 0 1 5.86 5.86 5.858 5.858 0 0 1-5.86 5.86zm2.982-7.681L8.66 7.5l1.822 1.822a.352.352 0 0 1 0 .498l-.662.662a.352.352 0 0 1-.498 0L7.5 8.66l-1.822 1.822a.352.352 0 0 1-.498 0l-.662-.662a.352.352 0 0 1 0-.498L6.34 7.5 4.518 5.678a.352.352 0 0 1 0-.498l.662-.662a.352.352 0 0 1 .498 0L7.5 6.34l1.822-1.822a.352.352 0 0 1 .498 0l.662.662a.352.352 0 0 1 0 .498z"/>
</svg>
