<svg xmlns="http://www.w3.org/2000/svg" width="108" height="108" viewBox="0 0 108 108">
    <g fill="none" fill-rule="evenodd" opacity=".5">
        <path d="M-21-21h150v150H-21z"/>
        <path fill="#637280" fill-rule="nonzero" d="M101.505 106.83L66.992 72.315c-3.55-3.55 1.774-8.874 5.324-5.324l34.513 34.513c3.55 3.55-1.775 8.874-5.324 5.324zM41.415 75.3c18.715 0 33.886-15.17 33.886-33.885 0-18.715-15.17-33.886-33.885-33.886C22.7 7.53 7.53 22.701 7.53 41.416 7.53 60.13 22.701 75.3 41.416 75.3zm0 7.53C18.543 82.832 0 64.29 0 41.417 0 18.542 18.542 0 41.416 0c22.873 0 41.416 18.542 41.416 41.416 0 22.873-18.543 41.416-41.416 41.416z"/>
    </g>
</svg>
