<?xml version="1.0"?>
<svg xmlns="http://www.w3.org/2000/svg" width="512px" height="512px" viewBox="0 0 128 128"><g><path d="M123.25,83.33a9.317,9.317,0,0,0-4.552-8,54.729,54.729,0,0,0-109.4,0,9.324,9.324,0,0,0,.559,16.328,10.394,10.394,0,0,0,9.806,13.905H36.833a9.329,9.329,0,0,0,3.389-18.023,10.364,10.364,0,0,0-.44-11.248,23.9,23.9,0,0,1,.668-4.867,24.239,24.239,0,0,1,47.74,4.29c.016.2.018.387.026.579a10.366,10.366,0,0,0-.438,11.246,9.329,9.329,0,0,0,3.389,18.023h17.166a10.394,10.394,0,0,0,9.806-13.9A9.324,9.324,0,0,0,123.25,83.33ZM64,25.94a51.443,51.443,0,0,1,50.976,46.2,10.528,10.528,0,0,0-6.19-4.26,45.743,45.743,0,0,0-89.572,0,10.531,10.531,0,0,0-6.2,4.271A51.451,51.451,0,0,1,64,25.94Zm35.991,43.8a36.752,36.752,0,0,0-71.979,0,10.487,10.487,0,0,0-5.176-2.094,42.255,42.255,0,0,1,82.326,0A10.489,10.489,0,0,0,99.991,69.742ZM8.25,83.33a5.828,5.828,0,0,1,5.177-5.791,1.75,1.75,0,0,0,1.493-1.285,6.989,6.989,0,0,1,12.854-1.587,1.755,1.755,0,0,0,1.906.852,7.182,7.182,0,0,1,1.57-.189A6.922,6.922,0,0,1,37.7,84.764a10.477,10.477,0,0,0-16.926.023,10.3,10.3,0,0,0-9.19,3.808A5.826,5.826,0,0,1,8.25,83.33ZM42.667,96.225a5.84,5.84,0,0,1-5.834,5.833H19.667a6.917,6.917,0,1,1,1.557-13.65,1.755,1.755,0,0,0,1.92-.849A6.992,6.992,0,0,1,36,89.148a1.751,1.751,0,0,0,1.493,1.284A5.823,5.823,0,0,1,42.667,96.225ZM64,49.44A27.678,27.678,0,0,0,37.05,70.58c-.218.895-.383,1.8-.512,2.708A10.335,10.335,0,0,0,31.25,71.83c-.022,0-.045,0-.067,0,.07-.441.147-.874.237-1.294a33.253,33.253,0,0,1,65.4,1.294c-.023,0-.046,0-.069,0a10.338,10.338,0,0,0-5.286,1.456A27.774,27.774,0,0,0,64,49.44Zm44.333,52.618H91.167a5.832,5.832,0,0,1-.66-11.626A1.751,1.751,0,0,0,92,89.148a6.992,6.992,0,0,1,12.856-1.589,1.753,1.753,0,0,0,1.92.849,6.914,6.914,0,1,1,1.557,13.65ZM116.417,88.6a10.3,10.3,0,0,0-9.189-3.808A10.477,10.477,0,0,0,90.3,84.764,6.922,6.922,0,0,1,96.75,75.33a7.182,7.182,0,0,1,1.57.189,1.754,1.754,0,0,0,1.906-.852,6.989,6.989,0,0,1,12.854,1.587,1.75,1.75,0,0,0,1.493,1.285A5.826,5.826,0,0,1,116.417,88.6Z" data-original="#000000" class="active-path" data-old_color="#000000" fill="#F5A623"/></g> </svg>
