<?xml version="1.0" encoding="UTF-8"?>
<svg width="526px" height="166px" viewBox="0 0 526 166" version="1.1" xmlns="http://www.w3.org/2000/svg" xmlns:xlink="http://www.w3.org/1999/xlink">
    <!-- Generator: Sketch 51.3 (57544) - http://www.bohemiancoding.com/sketch -->
    <title>Slice 1</title>
    <desc>Created with Sketch.</desc>
    <defs></defs>
    <g id="Page-1" stroke="none" stroke-width="1" fill="none" fill-rule="evenodd">
        <g id="study" fill="#F5A623" fill-rule="nonzero">
            <rect id="Rectangle-path" x="71" y="110" width="68" height="6"></rect>
            <path d="M13.661182,48.9905262 L13.661182,58.1000984 C13.661182,59.6280823 14.8849816,60.8667579 16.394615,60.8667579 L19.1280481,60.8667579 L19.1280481,77.4667148 L16.394615,77.4667148 C14.8849816,77.4667148 13.661182,78.7053904 13.661182,80.2333743 L13.661182,91.3000122 C13.661182,92.8279961 14.8849816,94.0666717 16.394615,94.0666717 L21.8614811,94.0666717 L21.8614811,102.36665 C21.8614811,103.894634 23.0852808,105.13331 24.5949142,105.13331 L27.3283472,105.13331 L27.3283472,132.799904 L24.5949142,132.799904 C23.0852808,132.799904 21.8614811,134.03858 21.8614811,135.566564 L21.8614811,146.633202 C21.8614811,148.161186 23.0852808,149.399861 24.5949142,149.399861 L106.597906,149.399861 L106.597906,163.233159 C106.597866,164.352199 107.263846,165.36107 108.285286,165.789314 C109.306726,166.217558 110.48246,165.980835 111.264218,165.189533 L122.998504,153.31261 L134.732791,165.189533 C135.514549,165.980835 136.690282,166.217558 137.711722,165.789314 C138.733163,165.36107 139.399143,164.352199 139.399103,163.233159 L139.399103,149.399861 L150.059491,149.399861 C157.755031,149.391094 163.991338,143.078981 164,135.289898 L164,102.643316 C163.991338,94.8542328 157.755031,88.5421197 150.059491,88.5333527 L147.787325,88.5333527 C148.322278,87.8082122 148.786406,87.0322124 149.173176,86.2162754 C150.751219,82.9111418 150.957302,79.1043832 149.745488,75.6445237 L147.932881,70.4224539 L144.307665,59.9817727 L129.807144,18.2204311 C129.655713,17.7819221 129.397124,17.3893232 129.05545,17.0791841 L111.164106,0.714047392 C110.40497,0.019680987 109.32626,-0.187420028 108.368636,0.177346565 C107.411013,0.542113158 106.734847,1.41766077 106.616357,2.44632206 L103.882923,26.1552105 L103.885999,26.1552105 C103.836594,26.5725617 103.882175,26.9958215 104.019253,27.392599 L111.127888,47.8658792 C108.083397,45.9946019 104.671395,44.8199146 101.13104,44.4241548 L101.13104,35.9668225 C101.13104,34.4388387 99.9072401,33.2001631 98.3976067,33.2001631 L95.6641736,33.2001631 L95.6641736,27.6668441 L98.3976067,27.6668441 C99.9072401,27.6668441 101.13104,26.4281684 101.13104,24.9001846 L101.13104,13.8335467 C101.13104,12.3055628 99.9072401,11.0668872 98.3976067,11.0668872 L19.1280481,11.0668872 C9.63057344,11.0706999 1.57330857,18.1251821 0.202080826,27.6373862 C-1.16914692,37.1495902 4.56073422,46.2401642 13.661182,48.9905262 Z M32.7952133,127.266586 L106.597906,127.266586 L106.597906,132.799904 L32.7952133,132.799904 L32.7952133,127.266586 Z M27.3283472,143.866542 L27.3283472,138.333223 L106.597906,138.333223 L106.597906,143.866542 L27.3283472,143.866542 Z M133.932236,156.553751 L124.931383,147.443487 C124.418761,146.924607 123.72348,146.633101 122.998504,146.633101 C122.273528,146.633101 121.578248,146.924607 121.065625,147.443487 L112.064772,156.553751 L112.064772,127.266586 L133.932236,127.266586 L133.932236,156.553751 Z M109.331339,121.733267 L32.7952133,121.733267 L32.7952133,116.199948 L65.59641,116.199948 L65.59641,110.666629 L32.7952133,110.666629 L32.7952133,105.13331 L143.662916,105.13331 C145.835962,105.135787 147.596954,106.918184 147.599402,109.117645 L147.599402,128.815569 C147.596954,131.01503 145.835962,132.797427 143.662916,132.799904 L139.399103,132.799904 L139.399103,124.499926 C139.399103,122.971942 138.175303,121.733267 136.665669,121.733267 L109.331339,121.733267 Z M158.533134,102.643316 L158.533134,135.289898 C158.527862,140.024436 154.737169,143.861206 150.059491,143.866542 L139.399103,143.866542 L139.399103,138.333223 L143.662916,138.333223 C148.853824,138.327315 153.060431,134.069575 153.066268,128.815569 L153.066268,109.117645 C153.060431,103.863639 148.853824,99.6058989 143.662916,99.5999907 L27.3283472,99.5999907 L27.3283472,94.0666717 L150.059491,94.0666717 C154.737169,94.0720081 158.527862,97.9087784 158.533134,102.643316 Z M140.056493,64.428832 L141.869101,69.6509018 L126.396161,75.1544791 L124.583554,69.9341385 L140.056493,64.428832 Z M121.497849,77.7347349 L122.144648,79.5977343 L123.957256,84.819804 C124.41938,86.1512707 125.07959,87.4035414 125.915077,88.5333527 L113.836378,88.5333527 C117.306381,85.6991672 119.953806,81.9672209 121.497849,77.7333516 L121.497849,77.7347349 Z M136.75929,88.5333527 C133.312837,88.4895598 130.2599,86.2727747 129.114561,82.9823963 L128.208428,80.3720531 L143.681367,74.8681299 L144.5875,77.4784731 C145.465887,80.01563 145.076954,82.8261712 143.543678,85.0214307 C142.010402,87.2166901 139.522356,88.5252487 136.866235,88.5333527 L136.75929,88.5333527 Z M138.243885,59.2067622 L133.08453,61.0414033 L120.398326,24.4997106 L125.557681,22.6667987 L138.243885,59.2067622 Z M111.431641,8.41746489 L121.984742,18.0703398 L109.820965,22.3973953 L111.431641,8.41746489 Z M115.242388,26.3340059 L127.930301,62.8763902 L122.772654,64.7110313 L122.345214,63.4805594 C121.942909,61.7351514 121.354148,60.0392361 120.589325,58.4227601 L110.083033,28.168647 L115.242388,26.3340059 Z M19.1280481,16.6002062 L95.6641736,16.6002062 L95.6641736,22.1335251 L19.1280481,22.1335251 C14.5991479,22.1335251 10.9277489,25.849552 10.9277489,30.4335036 C10.9277489,35.0174551 14.5991479,38.733482 19.1280481,38.733482 L95.6641736,38.733482 L95.6641736,44.266801 L40.9955125,44.266801 L40.9955125,49.80012 L98.3976067,49.80012 C105.671976,49.8072537 112.314513,53.984584 115.543066,60.5824836 L117.088822,65.0343846 C118.328024,70.7613777 116.936141,76.7482403 113.303762,81.3149394 C109.671383,85.8816386 104.18993,88.5360719 98.3976067,88.5333527 L19.1280481,88.5333527 L19.1280481,83.0000338 L79.2635753,83.0000338 L79.2635753,77.4667148 L24.5949142,77.4667148 L24.5949142,71.9333958 L101.13104,71.9333958 L101.13104,66.4000769 L24.5949142,66.4000769 L24.5949142,60.8667579 L98.3976067,60.8667579 C102.926507,60.8667579 106.597906,64.5827848 106.597906,69.1667364 C106.597906,73.7506879 102.926507,77.4667148 98.3976067,77.4667148 L84.7304414,77.4667148 L84.7304414,83.0000338 L98.3976067,83.0000338 C105.945774,83.0000338 112.064772,76.8066556 112.064772,69.1667364 C112.064772,61.5268171 105.945774,55.3334389 98.3976067,55.3334389 L19.1280481,55.3334389 L19.1280481,49.80012 L35.5286464,49.80012 L35.5286464,44.266801 L19.1280481,44.266801 C11.5798811,44.266801 5.46088279,38.0734228 5.46088279,30.4335036 C5.46088279,22.7935844 11.5798811,16.6002062 19.1280481,16.6002062 Z M90.1973075,33.2001631 L19.1280481,33.2001631 C17.6184147,33.2001631 16.394615,31.9614874 16.394615,30.4335036 C16.394615,28.9055197 17.6184147,27.6668441 19.1280481,27.6668441 L90.1973075,27.6668441 L90.1973075,33.2001631 Z" id="Shape"></path>
        </g>
        <text id="Believe-in-your-shel" font-family="LucidaGrande, Lucida Grande" font-size="36" font-weight="normal" letter-spacing="0.431999981" fill="#000000" fill-opacity="0.63">
            <tspan x="185.472352" y="131">Believe</tspan>
            <tspan x="308.818617" y="131" font-family="AlTarikh, Al Tarikh"> </tspan>
            <tspan x="314.426039" y="131">in</tspan>
            <tspan x="348.038086" y="131" font-family="AlTarikh, Al Tarikh"> </tspan>
            <tspan x="353.645508" y="131">your</tspan>
            <tspan x="433.367648" y="131" font-family="AlTarikh, Al Tarikh"> </tspan>
            <tspan x="438.97507" y="131">shelf</tspan>
        </text>
        <text id="BIGAS" font-family="LucidaGrande, Lucida Grande" font-size="80" font-weight="normal" letter-spacing="0.959999979" fill="#F5A623">
            <tspan x="181.521875" y="87">BIGAS</tspan>
        </text>
    </g>
</svg>