<svg xmlns="http://www.w3.org/2000/svg" width="18" height="20" viewBox="0 0 18 20">
    <g fill="none" fill-rule="evenodd">
        <path d="M0 0H24V24H0z" transform="translate(-3 -2)"/>
        <path fill="#F5A623" fill-rule="nonzero" stroke="#F5A623" d="M12 4.004a1.742 1.742 0 00-1.07.355L5.713 8.324A1.8 1.8 0 005 9.761v8.443A1.79 1.79 0 006.783 20h10.434A1.79 1.79 0 0019 18.204V9.739a1.8 1.8 0 00-.713-1.415l-5.217-3.96a1.775 1.775 0 00-1.07-.36v-1.2c.415 0 .824.088 1.2.254v.946H12zm1.796-.596l5.214 3.959a3.007 3.007 0 011.19 2.372v8.465a2.99 2.99 0 01-2.983 2.996H6.783A2.99 2.99 0 013.8 18.204V9.76c0-.94.44-1.828 1.187-2.392l5.22-3.967A2.975 2.975 0 0112 2.8l1.2.258c.21.092.41.21.596.35z" transform="translate(-3 -2)"/>
    </g>
</svg>
