<svg xmlns="http://www.w3.org/2000/svg" width="22" height="20" viewBox="0 0 22 20">
    <g fill="none" fill-rule="evenodd">
        <path d="M0 0H24V24H0z" transform="translate(-1 -2)"/>
        <path fill="#F5A623" fill-rule="nonzero" stroke="#F5A623" d="M9.484 17.012a2.1 2.1 0 11-2.968 2.976 2.1 2.1 0 012.968-2.976zm-1.482.588a.9.9 0 10-.003 1.801.9.9 0 00.003-1.801zm9.982-.588a2.1 2.1 0 11-2.968 2.976 2.1 2.1 0 012.968-2.976zm-1.482.588a.9.9 0 10-.003 1.801.9.9 0 00.003-1.801zm-9.94-8.33a.6.6 0 011.177-.23l1.2 6.135a.6.6 0 11-1.178.23l-1.2-6.135zm.211-1.44a4.39 4.39 0 01-4.366-3.741.6.6 0 111.186-.178A3.19 3.19 0 006.77 6.63H21a.6.6 0 01.58.755l-2.15 8.06a.6.6 0 01-.58.445H8.349c-1.366-.003-2.244.498-2.725 1.529a.6.6 0 11-1.088-.508c.69-1.476 2.003-2.225 3.814-2.221h10.04l1.829-6.86H6.773z" transform="translate(-1 -2)"/>
    </g>
</svg>
