<svg xmlns="http://www.w3.org/2000/svg" width="18" height="18" viewBox="0 0 18 18">
    <g fill="none" fill-rule="evenodd">
        <path d="M0 0H24V24H0z" transform="translate(-3 -3)"/>
        <path fill="#F5A623" fill-rule="nonzero" stroke="#F5A623" d="M16.183 14.128a.6.6 0 11.536-1.074l3.182 1.591a.6.6 0 010 1.073l-7.636 3.819a.6.6 0 01-.537 0l-7.636-3.819a.6.6 0 010-1.073l3.181-1.59a.6.6 0 11.537 1.073l-2.108 1.054 6.294 3.147 6.295-3.147-2.108-1.054zm0-3.182a.6.6 0 11.536-1.074l3.182 1.591a.6.6 0 010 1.074l-7.636 3.818a.6.6 0 01-.537 0l-7.636-3.818a.6.6 0 010-1.074l3.181-1.59a.6.6 0 01.537 1.073L5.702 12l6.294 3.147L18.291 12l-2.108-1.054zm-4.455-6.483a.6.6 0 01.537 0L19.9 8.282a.6.6 0 010 1.073l-7.636 3.818a.6.6 0 01-.537 0L4.092 9.355a.6.6 0 010-1.073l7.636-3.819zm.268 1.208L5.702 8.818l6.294 3.148 6.295-3.148-6.295-3.147z" transform="translate(-3 -3)"/>
    </g>
</svg>
