<svg xmlns="http://www.w3.org/2000/svg" width="18" height="18" viewBox="0 0 18 18">
    <g fill="none" fill-rule="evenodd">
        <path d="M0 0H24V24H0z" transform="translate(-3 -3)"/>
        <path fill="#637280" fill-rule="nonzero" d="M20.068 12.264l.004.003a1.844 1.844 0 01-.004 2.587l-5.218 5.218a1.844 1.844 0 01-2.586-.004l-8.335-8.334a1.853 1.853 0 01-.529-1.291V5.228c0-1.01.819-1.828 1.828-1.828h5.218c.481.002.943.192 1.292.533l8.33 8.33zm-9.174-7.478a.65.65 0 00-.451-.186H5.228a.628.628 0 00-.628.628v5.212c0 .17.068.333.182.45l8.326 8.326c.25.245.65.245.897.004l5.21-5.211a.642.642 0 00.002-.899l-8.323-8.324zm-3.129 4.52a1.541 1.541 0 110-3.082 1.541 1.541 0 010 3.082zm0-1.2a.341.341 0 100-.682.341.341 0 000 .682z" transform="translate(-3 -3)"/>
    </g>
</svg>
