<svg xmlns="http://www.w3.org/2000/svg" width="20" height="20" viewBox="0 0 20 20">
    <g fill="none" fill-rule="evenodd">
        <path d="M-2-2h24v24H-2z"/>
        <path fill="#F5A623" fill-rule="nonzero" stroke="#F5A623" d="M18.068 10.264l.004.003a1.844 1.844 0 0 1-.004 2.587l-5.218 5.218a1.844 1.844 0 0 1-2.586-.004L1.929 9.734A1.853 1.853 0 0 1 1.4 8.443V3.228c0-1.01.819-1.828 1.828-1.828h5.218c.481.002.943.192 1.292.533l8.33 8.33zM8.894 2.786a.65.65 0 0 0-.451-.186H3.228a.628.628 0 0 0-.628.628V8.44c0 .17.068.333.182.45l8.326 8.326c.25.245.65.245.897.004l5.21-5.211a.642.642 0 0 0 .002-.899L8.894 2.786zm-3.129 4.52a1.541 1.541 0 1 1 0-3.082 1.541 1.541 0 0 1 0 3.082zm0-1.2a.341.341 0 1 0 0-.682.341.341 0 0 0 0 .682z"/>
    </g>
</svg>
